<svg width="48" height="45" viewBox="0 0 48 45" fill="none" xmlns="http://www.w3.org/2000/svg">
<g clip-path="url(#clip0_2_4220)">
<path d="M8.29287 4.73073C8.19864 5.50003 7.90654 6.28809 7.65213 6.87913C7.52964 7.17935 7.39772 7.43265 7.31292 7.6109C7.22811 7.78915 7.16215 7.89235 7.16215 7.89235C7.16215 7.89235 6.89832 7.69534 6.63449 7.31069C6.37066 6.91666 6.10682 6.32561 6.15393 5.50941C6.19163 4.69321 6.56853 3.84886 6.94543 3.2109C7.03966 3.05141 7.13389 2.91069 7.21869 2.77935C7.30349 2.648 7.39772 2.5448 7.46368 2.45099C7.60502 2.26335 7.69924 2.16016 7.69924 2.16016C7.69924 2.16016 7.90654 2.41346 8.07615 2.86378C8.16095 3.08894 8.23633 3.36101 8.28345 3.6706C8.33056 3.9802 8.33998 4.3367 8.28345 4.72135L8.29287 4.73073Z" fill="#FFB804"/>
<path d="M5.06109 10.4065C5.19301 11.2508 5.1082 12.1702 5.01398 12.8739C4.99513 13.0521 4.96687 13.221 4.9386 13.3711C4.91033 13.5212 4.89148 13.6525 4.87264 13.7557C4.82553 13.9715 4.79726 14.1029 4.79726 14.1029C4.79726 14.1029 4.45804 13.9809 4.06229 13.6338C3.86442 13.4649 3.6477 13.2397 3.46867 12.9489C3.28964 12.6581 3.12003 12.3016 3.02581 11.8606C2.83735 10.9788 2.97869 9.97492 3.18599 9.19625C3.28964 8.8116 3.41213 8.47386 3.49694 8.2487C3.59116 8.01416 3.65712 7.88281 3.65712 7.88281C3.65712 7.88281 3.7325 7.92972 3.84557 8.03292C3.95865 8.13612 4.10941 8.29561 4.27901 8.502C4.4392 8.7084 4.60881 8.97109 4.75015 9.29006C4.89148 9.60904 5.01398 9.97492 5.07994 10.3971L5.06109 10.4065Z" fill="#FFB804"/>
<path d="M3.40912 16.7298C3.79545 17.5929 3.9839 18.5873 4.12524 19.3566C4.16293 19.5536 4.18177 19.7319 4.21004 19.9008C4.23831 20.0603 4.25716 20.2104 4.276 20.3323C4.30427 20.5762 4.31369 20.717 4.31369 20.717C4.31369 20.717 4.21946 20.717 4.04986 20.6794C3.88967 20.6513 3.65411 20.595 3.39028 20.4824C3.12644 20.3698 2.82492 20.2104 2.52339 19.9664C2.23129 19.7131 1.94862 19.3848 1.6942 18.9438C1.21365 18.0526 1.05347 16.8893 1.06289 15.9886C1.06289 15.7635 1.07231 15.5571 1.08173 15.36C1.10058 15.1724 1.11 15.0035 1.12885 14.8628C1.16654 14.5907 1.20423 14.4219 1.20423 14.4219C1.20423 14.4219 1.58113 14.5532 2.024 14.9191C2.25014 15.0974 2.50455 15.3413 2.74011 15.6321C2.97568 15.9323 3.21125 16.2888 3.3997 16.7204L3.40912 16.7298Z" fill="#FFB804"/>
<path d="M3.74985 23.334C4.45655 24.0845 5.00306 25.0321 5.4365 25.7732C5.48361 25.867 5.54015 25.9609 5.58726 26.0453C5.63437 26.1297 5.68149 26.2142 5.7286 26.2986C5.8134 26.4581 5.88878 26.5988 5.94532 26.7114C6.06781 26.9459 6.13377 27.0867 6.13377 27.0867C6.13377 27.0867 6.03012 27.1148 5.85109 27.143C5.67206 27.1711 5.40823 27.1992 5.09728 27.1899C4.48481 27.1523 3.62736 26.9553 2.81701 26.2142C2.00667 25.473 1.40362 24.3378 1.09267 23.3809C1.00787 23.1464 0.951333 22.9118 0.894798 22.7054C0.838262 22.499 0.800571 22.3114 0.762881 22.1613C0.706345 21.8517 0.6875 21.6641 0.6875 21.6641C0.6875 21.6641 0.791149 21.6641 0.979601 21.7016C1.15863 21.7391 1.41304 21.8048 1.71456 21.9174C2.00667 22.0299 2.3553 22.1988 2.70394 22.424C2.88297 22.5366 3.05258 22.6679 3.23161 22.818C3.41064 22.9681 3.59909 23.137 3.76869 23.3246L3.74985 23.334Z" fill="#FFB804"/>
<path d="M6.18907 29.48C6.31157 29.5456 6.42464 29.6207 6.54713 29.6958C6.66963 29.7708 6.7827 29.8459 6.90519 29.9303C7.14076 30.0898 7.35748 30.2587 7.5742 30.4275C7.67785 30.512 7.79092 30.5964 7.89456 30.6808C7.94168 30.7184 7.99821 30.7653 8.04533 30.8122C8.10186 30.8497 8.14898 30.8966 8.19609 30.9341C8.39396 31.103 8.58242 31.2625 8.75202 31.422C9.11008 31.7222 9.38334 32.0036 9.60006 32.2007C9.80736 32.3977 9.92043 32.5196 9.92043 32.5196C9.92043 32.5196 9.8262 32.5853 9.65659 32.6791C9.48699 32.7729 9.23258 32.8855 8.90278 32.9793C8.58242 33.0732 8.17724 33.1482 7.72496 33.1201C7.27267 33.1013 6.75443 33.0075 6.21734 32.7636C5.12432 32.2851 4.1161 31.3094 3.46594 30.4275C3.29633 30.2117 3.16441 29.996 3.0325 29.799C2.91 29.6019 2.79693 29.4331 2.72155 29.283C2.56137 28.9827 2.47656 28.7951 2.47656 28.7951C2.47656 28.7951 2.58963 28.767 2.78751 28.7388C2.98538 28.7107 3.26806 28.6919 3.60728 28.7107C3.77688 28.7107 3.96534 28.7388 4.16321 28.767C4.36109 28.7951 4.57781 28.842 4.79453 28.8983C5.01125 28.9546 5.23739 29.0297 5.47295 29.1329C5.70852 29.2267 5.95351 29.3392 6.19849 29.4706L6.18907 29.48Z" fill="#FFB804"/>
<path d="M10.4502 34.5756C11.0438 34.6882 11.628 34.8665 12.1933 35.0541C12.4666 35.1573 12.7493 35.2511 13.0037 35.3449C13.1356 35.4012 13.2581 35.4481 13.3806 35.495C13.5031 35.5419 13.6256 35.5888 13.7387 35.6358C14.2004 35.8328 14.5961 35.9829 14.8788 36.1048C15.0201 36.1705 15.1332 36.208 15.2086 36.2456C15.284 36.2831 15.3311 36.2925 15.3311 36.2925C15.3311 36.2925 15.2651 36.3957 15.1238 36.5645C14.9824 36.724 14.7751 36.9398 14.483 37.165C14.1909 37.3807 13.8235 37.5871 13.3523 37.7466C13.1168 37.8311 12.8624 37.878 12.5797 37.9155C12.297 37.9436 11.9955 37.9624 11.6657 37.9343C11.3453 37.9061 11.0061 37.8498 10.6763 37.7654C10.3465 37.6716 10.0167 37.559 9.69635 37.4277C9.38541 37.2869 9.07446 37.1368 8.78236 36.9773C8.49026 36.8178 8.22642 36.6396 7.98144 36.4613C7.91548 36.4238 7.85894 36.3769 7.80241 36.3394C7.74587 36.2925 7.68934 36.2549 7.6328 36.208C7.51973 36.1236 7.41608 36.0392 7.32185 35.9641C7.12398 35.8046 6.95437 35.6545 6.82245 35.5232C6.5492 35.2699 6.39844 35.101 6.39844 35.101C6.39844 35.101 6.50209 35.0353 6.69996 34.9415C6.89784 34.8477 7.18051 34.7445 7.53857 34.6507C7.7176 34.6038 7.91548 34.5662 8.12278 34.5381C8.3395 34.5006 8.56564 34.4818 8.81063 34.4724C9.05561 34.463 9.31002 34.4724 9.58328 34.4912C9.85654 34.51 10.1392 34.5381 10.4407 34.6038L10.4502 34.5756Z" fill="#FFB804"/>
<path d="M16.2277 37.9776C16.5481 37.9119 16.8779 37.8744 17.1982 37.8462C17.528 37.8087 17.8484 37.7805 18.1594 37.7712C18.4797 37.743 18.7907 37.7336 19.0828 37.7336C19.3843 37.7149 19.667 37.7055 19.9308 37.7055C20.4679 37.6773 20.9202 37.6867 21.25 37.668C21.5798 37.668 21.7682 37.668 21.7682 37.668C21.7682 37.668 21.7494 37.7993 21.6928 38.0151C21.6269 38.2309 21.5232 38.5311 21.3348 38.8688C21.2405 39.0377 21.1275 39.2159 20.9861 39.3942C20.9202 39.488 20.8354 39.5724 20.7506 39.6663C20.6658 39.7507 20.5715 39.8445 20.4773 39.9289C20.2794 40.0978 20.0439 40.2667 19.78 40.4262C19.5162 40.5857 19.2147 40.7076 18.866 40.8202C18.5174 40.9422 18.1594 40.9985 17.7824 41.0547C17.4055 41.111 17.0192 41.111 16.6423 41.1017C16.256 41.1017 15.8791 41.0547 15.5116 40.9985C15.1441 40.9515 14.7955 40.8671 14.4751 40.7827C14.3149 40.7452 14.1547 40.6982 14.004 40.6513C13.8532 40.6044 13.7119 40.5575 13.58 40.5012C13.3161 40.4074 13.0806 40.323 12.8921 40.2385C12.5152 40.0697 12.2891 39.9477 12.2891 39.9477C12.2891 39.9477 12.3739 39.8445 12.5435 39.685C12.7131 39.5255 12.9581 39.3098 13.2973 39.1034C13.6271 38.8876 14.0511 38.6624 14.5411 38.4654C15.031 38.2778 15.5964 38.0901 16.2371 37.9869L16.2277 37.9776Z" fill="#FFB804"/>
<path d="M9.53627 5.65715C8.83899 5.91046 8.22652 6.47336 7.8025 6.97058C7.59521 7.22389 7.4256 7.44905 7.32195 7.61792C7.2183 7.78679 7.15234 7.88999 7.15234 7.88999C7.15234 7.88999 7.46329 8.00257 7.925 8.04009C8.38671 8.06824 9.01802 8.03071 9.66818 7.73988C10.3089 7.44905 10.8837 6.99873 11.3077 6.61408C11.4114 6.52026 11.5056 6.42645 11.5904 6.34201C11.6752 6.25758 11.7506 6.19191 11.8071 6.12623C11.9296 6.00427 11.9956 5.92922 11.9956 5.92922C11.9956 5.92922 11.7317 5.74159 11.2889 5.61024C11.0722 5.54457 10.7989 5.48828 10.5068 5.48828C10.2147 5.48828 9.87548 5.52581 9.53627 5.65715Z" fill="#FFB804"/>
<path d="M6.66255 11.0317C6.00297 11.5101 5.51299 12.2888 5.21147 12.9361C5.13609 13.0956 5.07013 13.2551 5.0136 13.3958C4.95706 13.5366 4.91937 13.6679 4.8911 13.7711C4.82514 13.9869 4.79688 14.1088 4.79688 14.1088C4.79688 14.1088 5.15493 14.137 5.66376 14.0432C5.91817 13.9963 6.21027 13.9118 6.51179 13.7805C6.82274 13.6491 7.12426 13.4709 7.43521 13.227C8.03825 12.7297 8.50939 12.073 8.8486 11.5383C9.01821 11.2662 9.15012 11.0316 9.24435 10.8628C9.32915 10.6939 9.38569 10.5907 9.38569 10.5907C9.38569 10.5907 9.30088 10.5626 9.15012 10.5344C8.99936 10.5063 8.78264 10.4688 8.53765 10.4688C8.28324 10.4688 7.98172 10.4875 7.67077 10.5719C7.3504 10.6564 7.02061 10.8065 6.6814 11.041L6.66255 11.0317Z" fill="#FFB804"/>
<path d="M5.28464 16.9363C4.72871 17.6305 4.4366 18.5875 4.3518 19.3661C4.33296 19.5631 4.30469 19.7414 4.30469 19.9103C4.30469 20.0698 4.30469 20.2199 4.30469 20.3418C4.30469 20.5858 4.32353 20.7265 4.32353 20.7265C4.32353 20.7265 4.41776 20.7077 4.57794 20.642C4.73813 20.5858 4.95485 20.4919 5.19984 20.3512C5.44482 20.2105 5.71808 20.0322 5.98191 19.7977C6.25517 19.5631 6.52842 19.2817 6.75457 18.944C7.23512 18.2685 7.5178 17.4804 7.7251 16.8518C7.77221 16.6924 7.81932 16.5423 7.85701 16.4109C7.8947 16.2796 7.92297 16.1576 7.95124 16.0544C8.00777 15.8574 8.02662 15.7354 8.02662 15.7354C8.02662 15.7354 7.63087 15.6979 7.09378 15.8292C6.82053 15.8949 6.519 15.9981 6.20806 16.1764C5.88769 16.3546 5.58616 16.5985 5.30348 16.9457L5.28464 16.9363Z" fill="#FFB804"/>
<path d="M5.74834 22.8718C5.41855 23.7725 5.46566 24.8607 5.66354 25.6769C5.68238 25.7801 5.71065 25.8833 5.7295 25.9772C5.75777 26.071 5.78603 26.1648 5.8143 26.2492C5.87084 26.4181 5.91795 26.5682 5.96506 26.6902C6.01218 26.8121 6.05929 26.9153 6.08756 26.9716C6.11582 27.0373 6.13467 27.0748 6.13467 27.0748C6.13467 27.0748 6.2289 27.0185 6.36081 26.8966C6.50215 26.784 6.6906 26.6057 6.88848 26.3806C7.30307 25.9115 7.73651 25.2454 7.9815 24.3823C8.22649 23.5192 8.23591 22.6279 8.22649 21.9337C8.22649 21.7648 8.22649 21.5959 8.21707 21.4552C8.21707 21.3145 8.19822 21.1831 8.1888 21.0799C8.1888 20.8641 8.16053 20.7422 8.16053 20.7422C8.16053 20.7422 8.05688 20.7703 7.88728 20.8266C7.71767 20.8923 7.4821 20.9861 7.21827 21.1362C6.95444 21.2863 6.68118 21.4927 6.41735 21.7836C6.28543 21.9243 6.16294 22.0838 6.04044 22.262C5.92737 22.4403 5.83315 22.6467 5.74834 22.8718Z" fill="#FFB804"/>
<path d="M8.08594 28.3412C8.08594 28.4725 8.08594 28.6039 8.08594 28.7352C8.09536 28.8665 8.11421 28.9979 8.13305 29.1292C8.17074 29.3919 8.2367 29.6452 8.3215 29.8985C8.35919 30.0205 8.40631 30.1425 8.45342 30.2644C8.48169 30.3207 8.50053 30.3864 8.5288 30.4427C8.55707 30.499 8.58534 30.5552 8.6136 30.6115C8.72668 30.8367 8.83975 31.0525 8.95282 31.2495C9.19781 31.6341 9.42395 31.9625 9.6124 32.1783C9.80085 32.3941 9.91392 32.516 9.91392 32.516C9.91392 32.516 9.98931 32.4222 10.0835 32.2533C10.1872 32.0845 10.3191 31.8405 10.4416 31.5309C10.5641 31.2307 10.6772 30.8648 10.762 30.4614C10.8468 30.0486 10.8845 29.6077 10.8656 29.1292C10.8279 28.1723 10.5358 27.2623 10.3003 26.5587C10.2343 26.3898 10.1872 26.2209 10.1212 26.0802C10.0647 25.9395 10.0082 25.8081 9.97046 25.7049C9.88566 25.4891 9.82912 25.3672 9.82912 25.3672C9.82912 25.3672 9.73489 25.4235 9.57471 25.5454C9.42395 25.6674 9.21665 25.8457 8.99993 26.0896C8.89628 26.2115 8.78321 26.3523 8.67956 26.5024C8.57591 26.6525 8.48169 26.8213 8.39688 27.009C8.31208 27.1966 8.2367 27.403 8.18016 27.6282C8.12363 27.8533 8.09536 28.0879 8.08594 28.3506V28.3412Z" fill="#FFB804"/>
<path d="M11.9871 32.7783C12.1473 33.3037 12.4205 33.8103 12.7597 34.2513C12.9293 34.4858 13.1178 34.6828 13.3062 34.8704C13.4005 34.9643 13.4947 35.0581 13.5889 35.1425C13.6832 35.227 13.7868 35.302 13.881 35.3771C14.2579 35.696 14.6254 35.9024 14.8892 36.0619C15.0212 36.1464 15.1342 36.1933 15.2096 36.2308C15.285 36.2683 15.3227 36.2871 15.3227 36.2871C15.3227 36.2871 15.3604 36.1651 15.3886 35.9587C15.4263 35.7523 15.464 35.4615 15.464 35.105C15.4734 34.7485 15.464 34.3357 15.3886 33.9041C15.351 33.6884 15.3133 33.4632 15.2567 33.238C15.2002 33.0035 15.1248 32.7877 15.0306 32.5438C14.6631 31.615 14.0977 30.8082 13.636 30.1984C13.6078 30.1609 13.5795 30.1233 13.5512 30.0858C13.523 30.0483 13.4947 30.0107 13.4664 29.9732C13.4099 29.8982 13.3628 29.8325 13.3062 29.7762C13.2026 29.6542 13.1084 29.551 13.0424 29.4572C12.8917 29.2696 12.7974 29.1758 12.7974 29.1758C12.7974 29.1758 12.7126 29.2696 12.5996 29.4385C12.4771 29.6073 12.3263 29.8606 12.185 30.1796C12.1096 30.3391 12.0436 30.5174 11.9871 30.705C11.9305 30.8926 11.8834 31.099 11.8646 31.3148C11.8363 31.5306 11.8269 31.7745 11.8457 32.0184C11.8646 32.2623 11.9117 32.5157 11.9871 32.7783Z" fill="#FFB804"/>
<path d="M10.8434 1.67044C10.033 2.37406 9.58074 3.24656 9.33576 3.91265C9.27922 4.08152 9.23211 4.23163 9.19442 4.37236C9.15673 4.51308 9.13788 4.63504 9.10961 4.73824C9.07192 4.93526 9.0625 5.05722 9.0625 5.05722C9.0625 5.05722 9.17557 5.01969 9.36402 4.92587C9.45825 4.87897 9.57132 4.83206 9.69382 4.76639C9.81631 4.70071 9.96707 4.63504 10.1084 4.55061C10.7115 4.22225 11.4747 3.76255 12.1814 3.15274C12.8787 2.53355 13.4252 1.86745 13.8492 1.3327C13.9528 1.20135 14.0471 1.07001 14.1319 0.957431C14.2167 0.844851 14.2921 0.751034 14.3486 0.6666C14.4711 0.49773 14.537 0.394531 14.537 0.394531C14.537 0.394531 14.4145 0.394531 14.2072 0.394531C14.1036 0.394531 13.9717 0.394531 13.8209 0.413295C13.6796 0.432058 13.51 0.450821 13.3309 0.488348C13.1519 0.516493 12.954 0.563401 12.7562 0.629073C12.6525 0.657218 12.5489 0.694744 12.4452 0.732271C12.3416 0.779179 12.2379 0.816706 12.1248 0.863614C12.0212 0.910523 11.9081 0.966813 11.7951 1.0231C11.6914 1.08877 11.5783 1.14506 11.4747 1.21074C11.371 1.27641 11.258 1.35146 11.1543 1.42651C11.0507 1.50157 10.947 1.586 10.8528 1.67982L10.8434 1.67044Z" fill="#FFB804"/>
<path d="M17.0727 35.6051C17.2517 35.8303 17.4496 36.046 17.6758 36.2431C17.9019 36.4307 18.1469 36.5996 18.4013 36.759C18.6557 36.8998 18.929 37.0311 19.1928 37.1531C19.4566 37.2563 19.7205 37.3407 19.9749 37.4158C20.4837 37.5377 20.936 37.6222 21.2563 37.6409C21.5861 37.6691 21.7746 37.6691 21.7746 37.6691C21.7746 37.6691 21.7557 37.5377 21.6992 37.3219C21.6427 37.1062 21.5484 36.7966 21.4071 36.4494C21.3317 36.2712 21.2469 36.0929 21.1527 35.9053C21.1056 35.8115 21.049 35.7177 21.0019 35.6239C20.9454 35.5207 20.8889 35.4268 20.8323 35.3236C20.7098 35.1266 20.5779 34.9202 20.4272 34.7326C20.2764 34.5356 20.1162 34.3292 19.9372 34.1509C19.2305 33.391 18.4296 32.8375 17.7794 32.4153C17.6946 32.359 17.6192 32.3121 17.5438 32.2746C17.4685 32.2277 17.4025 32.1808 17.3271 32.1339C17.1952 32.0494 17.0727 31.9838 16.9691 31.9181C16.7712 31.7961 16.6393 31.7305 16.6393 31.7305C16.6393 31.7305 16.5921 31.8524 16.5262 32.0682C16.4697 32.284 16.3943 32.5842 16.3566 32.9501C16.3189 33.3254 16.3283 33.7381 16.4225 34.1978C16.5168 34.6669 16.7146 35.136 17.0633 35.6051H17.0727Z" fill="#FFB804"/>
<path d="M23.0663 42.8102C23.707 41.9658 23.9803 40.84 24.0839 39.9394C24.131 39.4891 24.1499 39.0951 24.1405 38.8136C24.1405 38.5322 24.1216 38.3633 24.1216 38.3633C24.1216 38.3633 23.6505 38.4665 23.0569 38.7948C22.4632 39.1232 21.7283 39.6673 21.1723 40.5023C20.6258 41.3373 20.3055 42.313 20.1076 43.0729C20.0605 43.2605 20.0134 43.4388 19.9851 43.5983C19.9474 43.7577 19.9191 43.8985 19.9003 44.0204C19.8532 44.255 19.8438 44.3957 19.8438 44.3957C19.8438 44.3957 20.3243 44.4051 20.965 44.2268C21.2854 44.133 21.6529 43.9923 22.0204 43.7671C22.3784 43.542 22.7553 43.2324 23.0663 42.8102Z" fill="#FFB804"/>
<path d="M25.1657 42.8102C24.525 41.9658 24.2517 40.84 24.1481 39.9394C24.101 39.4891 24.0821 39.0951 24.101 38.8136C24.101 38.5322 24.1198 38.3633 24.1198 38.3633C24.1198 38.3633 24.5909 38.4665 25.1846 38.7948C25.7782 39.1232 26.5132 39.6673 27.0691 40.5023C27.6156 41.3373 27.936 42.313 28.1338 43.0729C28.181 43.2605 28.2281 43.4388 28.2563 43.5983C28.2846 43.7577 28.3223 43.8985 28.3411 44.0204C28.3883 44.255 28.3977 44.3957 28.3977 44.3957C28.3977 44.3957 27.9171 44.4051 27.2764 44.2268C26.956 44.133 26.5885 43.9923 26.2211 43.7671C25.863 43.542 25.4861 43.2324 25.1751 42.8102H25.1657Z" fill="#FFB804"/>
<path d="M38.6983 5.91183C39.3861 6.15575 39.9892 6.70927 40.4038 7.19711C40.6111 7.44104 40.7712 7.6662 40.8749 7.83507C40.9785 8.00394 41.0351 8.10713 41.0351 8.10713C41.0351 8.10713 40.7336 8.21971 40.2624 8.25724C39.8007 8.29477 39.1788 8.25724 38.5381 7.97579C37.8973 7.69434 37.332 7.2534 36.9268 6.88752C36.8232 6.7937 36.7289 6.70927 36.6536 6.62483C36.5688 6.54978 36.4934 6.47472 36.4368 6.41843C36.3238 6.29647 36.2578 6.22142 36.2578 6.22142C36.2578 6.22142 36.5216 6.03379 36.9551 5.89306C37.1718 5.82739 37.4356 5.76172 37.7372 5.76172C38.0293 5.76172 38.3591 5.78986 38.6983 5.92121V5.91183Z" fill="#FFB804"/>
<path d="M41.5809 11.1566C42.2405 11.6257 42.7305 12.3856 43.0226 13.0236C43.0979 13.1831 43.1639 13.3332 43.211 13.4739C43.2675 13.6146 43.3052 13.7366 43.3335 13.8398C43.3995 14.0462 43.4277 14.1775 43.4277 14.1775C43.4277 14.1775 43.0697 14.2151 42.5609 14.1119C42.3064 14.065 42.0238 13.9805 41.7222 13.8492C41.4113 13.7272 41.1098 13.549 40.7988 13.3051C40.1958 12.8266 39.7246 12.1793 39.3949 11.6539C39.2347 11.3912 39.0933 11.1566 39.0085 10.9878C38.9237 10.8189 38.8672 10.7157 38.8672 10.7157C38.8672 10.7157 38.952 10.6876 39.1028 10.6594C39.2535 10.6313 39.4608 10.5938 39.7152 10.5938C39.9696 10.5938 40.2617 10.6125 40.5821 10.6969C40.9025 10.7814 41.2323 10.9221 41.5621 11.1566H41.5809Z" fill="#FFB804"/>
<path d="M43.006 16.9649C43.5619 17.6497 43.8446 18.5879 43.9388 19.3572C43.9577 19.5448 43.9859 19.7325 43.9859 19.892C43.9859 20.0514 43.9859 20.2016 43.9859 20.3141C43.9859 20.5581 43.9671 20.6988 43.9671 20.6988C43.9671 20.6988 43.8729 20.68 43.7127 20.6143C43.5525 20.5581 43.3358 20.4642 43.0908 20.3235C42.8458 20.1922 42.5726 20.0045 42.3087 19.7794C42.0355 19.5542 41.7622 19.2728 41.5361 18.9444C41.0649 18.2877 40.7728 17.509 40.5655 16.8804C40.5184 16.721 40.4713 16.5802 40.4336 16.4489C40.3959 16.3175 40.3677 16.1956 40.3488 16.1018C40.2923 15.9048 40.2734 15.7828 40.2734 15.7828C40.2734 15.7828 40.6692 15.7453 41.2063 15.8672C41.4795 15.9329 41.7811 16.0361 42.092 16.205C42.4124 16.3738 42.7139 16.6178 42.9966 16.9555L43.006 16.9649Z" fill="#FFB804"/>
<path d="M42.621 22.8359C42.9508 23.7271 42.9037 24.806 42.7152 25.6222C42.6964 25.7254 42.6681 25.8286 42.6493 25.9131C42.621 26.0069 42.5927 26.1007 42.5645 26.1851C42.5079 26.354 42.4608 26.5041 42.4137 26.6261C42.376 26.748 42.3289 26.8418 42.3006 26.9075C42.2724 26.9732 42.2535 27.0107 42.2535 27.0107C42.2535 27.0107 42.1687 26.9544 42.0274 26.8325C41.886 26.7199 41.6976 26.5416 41.4997 26.3165C41.0851 25.8568 40.6517 25.1907 40.3973 24.3369C40.1429 23.4832 40.1334 22.6013 40.1429 21.9071C40.1429 21.7382 40.1429 21.5787 40.1523 21.438C40.1523 21.2973 40.1711 21.1659 40.1805 21.0627C40.19 20.8563 40.2088 20.7344 40.2088 20.7344C40.2088 20.7344 40.3125 20.7625 40.4821 20.8188C40.6517 20.8845 40.8872 20.9783 41.1511 21.1284C41.4149 21.2785 41.6882 21.4849 41.952 21.7664C42.0839 21.9071 42.2064 22.0666 42.3289 22.2448C42.442 22.4231 42.5362 22.6201 42.621 22.8452V22.8359Z" fill="#FFB804"/>
<path d="M40.3663 28.2693C40.3663 28.3913 40.3663 28.532 40.3663 28.6539C40.3569 28.7853 40.3381 28.9072 40.3192 29.0386C40.2815 29.2919 40.225 29.5546 40.1308 29.7985C40.0931 29.9205 40.046 30.0424 39.9989 30.1644C39.9706 30.2301 39.9517 30.2864 39.9235 30.3426C39.8952 30.3989 39.8669 30.4552 39.8387 30.5115C39.7256 30.7367 39.6125 30.9524 39.4995 31.1495C39.2545 31.5341 39.0283 31.8531 38.8399 32.0689C38.6608 32.2846 38.5383 32.4066 38.5383 32.4066C38.5383 32.4066 38.463 32.3128 38.3687 32.1439C38.2651 31.975 38.1332 31.7311 38.0107 31.4309C37.8882 31.1307 37.7751 30.7742 37.6809 30.3614C37.5961 29.958 37.5584 29.5171 37.5678 29.0386C37.6055 28.091 37.8882 27.1904 38.1238 26.4868C38.1897 26.3179 38.2368 26.149 38.2934 26.0083C38.3499 25.8676 38.4064 25.7456 38.4441 25.633C38.5289 25.4266 38.5855 25.3047 38.5855 25.3047C38.5855 25.3047 38.6797 25.361 38.8399 25.4829C38.9906 25.6049 39.1979 25.7832 39.4147 26.0177C39.5183 26.1397 39.6314 26.2804 39.735 26.4305C39.8387 26.59 39.9329 26.7495 40.0177 26.9465C40.1025 27.1341 40.1779 27.3405 40.2438 27.5657C40.3004 27.7908 40.3286 28.0254 40.3381 28.2787L40.3663 28.2693Z" fill="#FFB804"/>
<path d="M36.5324 32.7237C36.3816 33.249 36.0989 33.7556 35.7597 34.1966C35.5901 34.4311 35.4016 34.6281 35.2132 34.8158C35.119 34.9096 35.0247 35.0034 34.9305 35.0878C34.8363 35.1723 34.7326 35.2473 34.6384 35.3224C34.2615 35.632 33.894 35.8477 33.6302 36.0072C33.4983 36.0917 33.3852 36.1292 33.3098 36.1761C33.2344 36.2136 33.1967 36.2324 33.1967 36.2324C33.1967 36.2324 33.1591 36.1104 33.1214 35.904C33.0837 35.6976 33.046 35.4068 33.046 35.0503C33.0366 34.6938 33.046 34.281 33.1214 33.8495C33.1591 33.6337 33.1967 33.4085 33.2533 33.1834C33.3098 32.9488 33.3852 32.733 33.4794 32.4891C33.8469 31.5603 34.4028 30.7629 34.8645 30.1437C34.8928 30.1062 34.9211 30.0686 34.9494 30.0311C34.9776 29.9936 35.0059 29.9561 35.0342 29.9185C35.0907 29.8435 35.1378 29.7778 35.1849 29.7215C35.2886 29.5996 35.3828 29.4964 35.4488 29.4025C35.5995 29.2243 35.6937 29.1211 35.6937 29.1211C35.6937 29.1211 35.7785 29.2149 35.8916 29.3838C36.0141 29.5527 36.1649 29.806 36.3062 30.1156C36.3816 30.275 36.4475 30.4533 36.5041 30.6409C36.5606 30.8286 36.6077 31.035 36.636 31.2507C36.6643 31.4665 36.6737 31.7011 36.6548 31.945C36.636 32.1889 36.5889 32.4422 36.5135 32.7049L36.5324 32.7237Z" fill="#FFB804"/>
<path d="M31.4909 35.6051C31.3119 35.8303 31.114 36.046 30.8879 36.2431C30.6618 36.4307 30.4168 36.5996 30.1624 36.759C29.9079 36.8998 29.6347 37.0311 29.3709 37.1531C29.107 37.2563 28.8432 37.3407 28.5888 37.4158C28.08 37.5377 27.6277 37.6222 27.3073 37.6409C26.9869 37.6691 26.7891 37.6691 26.7891 37.6691C26.7891 37.6691 26.8079 37.5377 26.8644 37.3219C26.921 37.1062 27.0152 36.7966 27.1565 36.4494C27.2319 36.2712 27.3167 36.0929 27.411 35.9053C27.4581 35.8115 27.5146 35.7177 27.5617 35.6239C27.6183 35.5207 27.6748 35.4268 27.7313 35.3236C27.8538 35.1266 27.9857 34.9202 28.1365 34.7326C28.2873 34.5356 28.4474 34.3292 28.6265 34.1509C29.3332 33.391 30.1341 32.8375 30.7843 32.4153C30.8596 32.359 30.9444 32.3121 31.0198 32.2746C31.0952 32.2277 31.1612 32.1808 31.2365 32.1339C31.3685 32.0494 31.4909 31.9838 31.5946 31.9181C31.7925 31.7961 31.9244 31.7305 31.9244 31.7305C31.9244 31.7305 31.9715 31.8524 32.0375 32.0682C32.1034 32.284 32.1694 32.5842 32.2071 32.9501C32.2448 33.3254 32.2353 33.7381 32.1411 34.1978C32.0469 34.6669 31.849 35.136 31.5004 35.6051H31.4909Z" fill="#FFB804"/>
<path d="M39.9428 4.97446C40.0371 5.73437 40.3103 6.50367 40.5647 7.09471C40.6872 7.39492 40.8097 7.63885 40.8945 7.8171C40.9793 7.99535 41.0359 8.09855 41.0359 8.09855C41.0359 8.09855 41.2997 7.91092 41.5635 7.51689C41.8274 7.12286 42.0912 6.54119 42.0535 5.74375C42.0158 4.93693 41.6483 4.10196 41.2808 3.47339C41.1866 3.3139 41.0924 3.17318 41.0076 3.05121C40.9228 2.92925 40.838 2.81667 40.7626 2.72286C40.6213 2.5446 40.5365 2.44141 40.5365 2.44141C40.5365 2.44141 40.3292 2.69471 40.1596 3.14503C40.0748 3.37019 39.9994 3.63288 39.9523 3.94247C39.9051 4.25207 39.8957 4.59919 39.9334 4.98384L39.9428 4.97446Z" fill="#FFB804"/>
<path d="M43.1842 10.5299C43.0523 11.3649 43.1277 12.2655 43.2219 12.9691C43.2408 13.1474 43.269 13.3069 43.2973 13.457C43.3256 13.6071 43.3444 13.7384 43.3632 13.8416C43.4009 14.0574 43.4386 14.1794 43.4386 14.1794C43.4386 14.1794 43.7778 14.0574 44.1736 13.7197C44.3715 13.5508 44.5882 13.3256 44.7766 13.0348C44.9557 12.7534 45.1253 12.3875 45.2195 11.9559C45.4174 11.0834 45.276 10.089 45.0687 9.31968C44.9651 8.93503 44.852 8.60667 44.7578 8.38151C44.673 8.14697 44.607 8.01562 44.607 8.01562C44.607 8.01562 44.5317 8.07191 44.4186 8.16573C44.3055 8.26893 44.1547 8.42842 43.9851 8.63481C43.825 8.84121 43.6553 9.1039 43.514 9.41349C43.3727 9.72309 43.2502 10.089 43.1842 10.5111V10.5299Z" fill="#FFB804"/>
<path d="M44.8811 16.7586C44.4948 17.6124 44.3064 18.5881 44.165 19.3574C44.1273 19.5544 44.1085 19.7326 44.0802 19.8921C44.0519 20.0516 44.0331 20.1923 44.0143 20.3143C43.986 20.5488 43.9766 20.6989 43.9766 20.6989C43.9766 20.6989 44.0708 20.6989 44.2404 20.6614C44.4006 20.6333 44.6361 20.577 44.9 20.4738C45.1638 20.3706 45.4653 20.2111 45.7669 19.9672C46.059 19.7232 46.3416 19.3949 46.596 18.954C47.0766 18.0721 47.2368 16.9275 47.2368 16.0363C47.2368 15.8111 47.2368 15.6047 47.2179 15.4171C47.2085 15.2294 47.1897 15.0606 47.1708 14.9292C47.1331 14.6572 47.1049 14.4883 47.1049 14.4883C47.1049 14.4883 46.728 14.629 46.2757 14.9855C46.0495 15.1638 45.7951 15.3983 45.5596 15.6985C45.324 15.9893 45.0884 16.3458 44.9 16.7774L44.8811 16.7586Z" fill="#FFB804"/>
<path d="M44.6151 23.2887C43.9084 24.0392 43.3713 24.968 42.9379 25.7091C42.8907 25.8029 42.8342 25.8968 42.7871 25.9812C42.74 26.0656 42.6929 26.1501 42.6552 26.2251C42.5704 26.3846 42.495 26.516 42.4385 26.6379C42.3254 26.8725 42.25 27.0132 42.25 27.0132C42.25 27.0132 42.3536 27.0507 42.5327 27.0789C42.7117 27.107 42.9755 27.1351 43.2865 27.1258C43.899 27.0882 44.747 26.9006 45.5668 26.1688C46.3771 25.4371 46.9707 24.3113 47.2817 23.3637C47.3665 23.1292 47.423 22.904 47.4796 22.6976C47.5361 22.4912 47.5738 22.313 47.602 22.1535C47.6586 21.8439 47.6774 21.6562 47.6774 21.6562C47.6774 21.6562 47.5738 21.6562 47.3853 21.6938C47.2063 21.7313 46.9519 21.7876 46.6504 21.9096C46.3583 22.0221 46.0096 22.1816 45.661 22.4068C45.482 22.5194 45.3124 22.6507 45.1333 22.8008C44.9543 22.9509 44.7753 23.1104 44.5962 23.298L44.6151 23.2887Z" fill="#FFB804"/>
<path d="M42.2617 29.4026C42.1392 29.4683 42.0261 29.5433 41.9036 29.6184C41.7811 29.6934 41.6681 29.7685 41.5456 29.8436C41.3194 30.003 41.0933 30.1719 40.8766 30.3314C40.7729 30.4158 40.6598 30.5003 40.5656 30.5847C40.5185 30.6316 40.462 30.6691 40.4148 30.7161C40.3677 30.7536 40.3112 30.8005 40.2641 30.838C40.0662 30.9975 39.8872 31.1664 39.7176 31.3259C39.3689 31.6261 39.0863 31.9075 38.879 32.0952C38.6717 32.2922 38.5586 32.4141 38.5586 32.4141C38.5586 32.4141 38.6528 32.4798 38.8224 32.5736C38.992 32.6674 39.2464 32.78 39.5762 32.8738C39.8966 32.9677 40.3018 33.0427 40.7446 33.0239C41.1969 33.0052 41.7152 32.9207 42.2523 32.6768C43.3453 32.2077 44.3441 31.232 44.9848 30.3595C45.1544 30.1438 45.2863 29.928 45.4088 29.731C45.5313 29.534 45.6444 29.3651 45.7198 29.215C45.88 28.9148 45.9648 28.7365 45.9648 28.7365C45.9648 28.7365 45.8517 28.7084 45.6538 28.6802C45.4559 28.6521 45.1733 28.6333 44.8341 28.6521C44.6644 28.6521 44.476 28.6802 44.2781 28.7084C44.0802 28.7365 43.8635 28.7834 43.6468 28.8397C43.4301 28.896 43.2039 28.9711 42.9684 29.0649C42.7328 29.1587 42.4878 29.2713 42.2523 29.4026H42.2617Z" fill="#FFB804"/>
<path d="M38.0746 34.5266C37.481 34.6298 36.8968 34.8081 36.3314 34.9957C36.0582 35.0989 35.7849 35.1927 35.5211 35.2865C35.3892 35.3428 35.2667 35.3897 35.1442 35.4366C35.0217 35.4836 34.8992 35.5305 34.7861 35.568C34.3338 35.765 33.9287 35.9151 33.6554 36.0371C33.5141 36.1027 33.401 36.1403 33.3256 36.1778C33.2502 36.2153 33.2031 36.2247 33.2031 36.2247C33.2031 36.2247 33.2691 36.3279 33.401 36.4968C33.5423 36.6563 33.7496 36.872 34.0417 37.0972C34.3338 37.313 34.7013 37.5288 35.1725 37.6789C35.408 37.7633 35.6624 37.8102 35.9451 37.8477C36.2184 37.8759 36.5293 37.8946 36.8591 37.8665C37.1795 37.8383 37.5187 37.7821 37.8485 37.6976C38.1783 37.6038 38.4986 37.4912 38.819 37.3599C39.1299 37.2192 39.4409 37.0691 39.7236 36.9096C40.0157 36.7501 40.2795 36.5718 40.5245 36.403C40.5905 36.356 40.647 36.3185 40.7035 36.281C40.7601 36.2341 40.8166 36.1966 40.8731 36.1496C40.9862 36.0652 41.0899 35.9808 41.1841 35.9057C41.382 35.7462 41.5516 35.5961 41.6835 35.4648C41.9567 35.2115 42.1075 35.0426 42.1075 35.0426C42.1075 35.0426 42.0038 34.9769 41.806 34.8831C41.6081 34.7893 41.3254 34.6767 40.9674 34.5923C40.7883 34.5454 40.5905 34.5079 40.3832 34.4797C40.1664 34.4422 39.9403 34.4234 39.6953 34.414C39.4503 34.4047 39.1959 34.414 38.9227 34.4234C38.6494 34.4422 38.3667 34.4703 38.0746 34.536V34.5266Z" fill="#FFB804"/>
<path d="M36.1344 3.49175C36.8316 4.07341 37.5855 4.49559 38.1791 4.7958C38.3298 4.87085 38.4712 4.93653 38.5937 4.99282C38.7162 5.04911 38.8292 5.1054 38.9235 5.14292C39.1119 5.21798 39.2156 5.2555 39.2156 5.2555C39.2156 5.2555 39.1967 5.14292 39.159 4.93653C39.1402 4.83333 39.1119 4.71137 39.0742 4.58002C39.0365 4.4393 38.98 4.28919 38.9235 4.12032C38.6785 3.4636 38.2073 2.60987 37.397 1.94378C37.2934 1.85934 37.1991 1.78429 37.0955 1.70923C36.9918 1.63418 36.8882 1.56851 36.7751 1.50284C36.6715 1.43717 36.5678 1.38088 36.4547 1.32459C36.3511 1.27768 36.238 1.23077 36.1344 1.18386C36.0307 1.13695 35.9271 1.09943 35.8234 1.0619C35.7198 1.02437 35.6161 0.996227 35.5219 0.977464C35.4277 0.949319 35.324 0.921174 35.2392 0.90241C35.145 0.883647 35.0508 0.864884 34.966 0.855502C34.7869 0.827357 34.6362 0.817975 34.4948 0.808594C34.3535 0.808594 34.231 0.808594 34.1274 0.808594C33.9295 0.808594 33.8164 0.827357 33.8164 0.827357C33.8164 0.827357 33.8824 0.930555 33.9954 1.09004C34.052 1.1651 34.1274 1.2683 34.2122 1.37149C34.297 1.48407 34.3818 1.60604 34.4854 1.728C34.9 2.24399 35.4371 2.9007 36.1249 3.48237L36.1344 3.49175Z" fill="#FFB804"/>
<path d="M32.3374 37.9776C32.017 37.9119 31.6872 37.8744 31.3668 37.8462C31.0371 37.8087 30.7167 37.7805 30.4057 37.7712C30.0854 37.743 29.7744 37.7336 29.4823 37.7336C29.1808 37.7149 28.8981 37.7055 28.6343 37.7055C28.0972 37.6773 27.6449 37.6867 27.3151 37.668C26.9853 37.668 26.7969 37.668 26.7969 37.668C26.7969 37.668 26.8157 37.7993 26.8723 38.0151C26.9382 38.2309 27.0419 38.5311 27.2303 38.8688C27.3245 39.0377 27.4376 39.2159 27.579 39.3942C27.6543 39.488 27.7297 39.5724 27.8145 39.6663C27.8993 39.7507 27.9935 39.8445 28.0878 39.9289C28.2856 40.0978 28.5212 40.2667 28.785 40.4262C29.0489 40.5857 29.3504 40.7076 29.699 40.8202C30.0477 40.9422 30.4057 40.9985 30.7826 41.0547C31.1595 41.111 31.5459 41.111 31.9228 41.1017C32.3091 41.1017 32.686 41.0547 33.0535 40.9985C33.421 40.9515 33.7696 40.8671 34.0994 40.7827C34.2596 40.7452 34.4198 40.6982 34.5705 40.6513C34.7213 40.6044 34.8626 40.5575 34.9945 40.5012C35.2584 40.4074 35.4939 40.323 35.6824 40.2385C36.0593 40.0697 36.2854 39.9477 36.2854 39.9477C36.2854 39.9477 36.2006 39.8445 36.0405 39.685C35.8709 39.5255 35.6164 39.3098 35.2866 39.1034C34.9569 38.8876 34.5328 38.6624 34.0429 38.4654C33.5529 38.2778 32.9875 38.0901 32.3468 37.9869L32.3374 37.9776Z" fill="#FFB804"/>
<path d="M24.0156 15.9452V4.28125L27.8236 11.9602L24.0156 15.9452Z" fill="url(#paint0_linear_2_4220)"/>
<path d="M24.0161 15.9452V4.28125L20.2109 11.9602L24.0161 15.9452Z" fill="url(#paint1_linear_2_4220)"/>
<path d="M36.3346 13.1932L24.0156 15.9459L27.8236 11.9609L36.3346 13.1932Z" fill="url(#paint2_linear_2_4220)"/>
<path d="M11.6992 13.1932L24.0168 15.9459L20.2116 11.9609L11.6992 13.1932Z" fill="url(#paint3_linear_2_4220)"/>
<path d="M31.6302 27.6092L30.1758 19.1687L24.0156 15.9453L31.6302 27.6092Z" fill="url(#paint4_linear_2_4220)"/>
<path d="M24.0156 15.9453V23.6243L31.6302 27.6092L24.0156 15.9453Z" fill="#FFB804"/>
<path d="M16.4062 27.6092L17.8592 19.1687L24.018 15.9453L16.4062 27.6092Z" fill="url(#paint5_linear_2_4220)"/>
<path d="M24.018 15.9453V23.6243L16.4062 27.6092L24.018 15.9453Z" fill="url(#paint6_linear_2_4220)"/>
<path d="M36.3346 13.1914L30.1758 19.1675L24.0156 15.9441L36.3346 13.1914Z" fill="url(#paint7_linear_2_4220)"/>
<path d="M11.6992 13.1914L17.858 19.1675L24.0168 15.9441L11.6992 13.1914Z" fill="#FFB804"/>
<path style="mix-blend-mode:screen" d="M24.2377 15.6967L36.3358 13.1932L24.3678 16.081L31.6314 27.6098L24.0406 16.3232L16.405 27.5416L23.7077 16.0865L11.6992 13.1932L23.8294 15.6995L24.0182 4.37109L24.2377 15.6967Z" fill="#FFB804"/>
</g>
<defs>
<linearGradient id="paint0_linear_2_4220" x1="25.9441" y1="14.0627" x2="23.8402" y2="4.23293" gradientUnits="userSpaceOnUse">
<stop stop-color="#C55904"/>
<stop offset="0.48" stop-color="#FECA33"/>
<stop offset="1" stop-color="#FFF6A7"/>
</linearGradient>
<linearGradient id="paint1_linear_2_4220" x1="22.0905" y1="14.0627" x2="24.1929" y2="4.23293" gradientUnits="userSpaceOnUse">
<stop stop-color="#FFF6A7"/>
<stop offset="0.52" stop-color="#FECA33"/>
<stop offset="1" stop-color="#C55904"/>
</linearGradient>
<linearGradient id="paint2_linear_2_4220" x1="36.0843" y1="13.5079" x2="26.3568" y2="13.9377" gradientUnits="userSpaceOnUse">
<stop stop-color="#F28C00"/>
<stop offset="1" stop-color="#FFF6A7"/>
</linearGradient>
<linearGradient id="paint3_linear_2_4220" x1="11.9509" y1="13.5079" x2="21.677" y2="13.9377" gradientUnits="userSpaceOnUse">
<stop stop-color="#F28C00"/>
<stop offset="1" stop-color="#FFF6A7"/>
</linearGradient>
<linearGradient id="paint4_linear_2_4220" x1="32.3182" y1="25.0946" x2="24.7723" y2="15.9256" gradientUnits="userSpaceOnUse">
<stop stop-color="#C55904"/>
<stop offset="0.48" stop-color="#FECA33"/>
<stop offset="1" stop-color="#FFF6A7"/>
</linearGradient>
<linearGradient id="paint5_linear_2_4220" x1="15.7168" y1="25.0946" x2="23.2628" y2="15.9256" gradientUnits="userSpaceOnUse">
<stop stop-color="#C55904"/>
<stop offset="0.48" stop-color="#FECA33"/>
<stop offset="1" stop-color="#FFF6A7"/>
</linearGradient>
<linearGradient id="paint6_linear_2_4220" x1="25.0445" y1="18.6201" x2="16.8259" y2="28.0346" gradientUnits="userSpaceOnUse">
<stop stop-color="#FFF6A7"/>
<stop offset="0.52" stop-color="#FECA33"/>
<stop offset="1" stop-color="#C55904"/>
</linearGradient>
<linearGradient id="paint7_linear_2_4220" x1="35.8032" y1="13.1761" x2="27.9062" y2="17.1832" gradientUnits="userSpaceOnUse">
<stop stop-color="#C55904"/>
<stop offset="0.48" stop-color="#FECA33"/>
<stop offset="1" stop-color="#FFF6A7"/>
</linearGradient>
<clipPath id="clip0_2_4220">
<rect width="47" height="44" fill="white" transform="translate(0.679688 0.386719)"/>
</clipPath>
</defs>
</svg>
